<?xml version="1.0" standalone="no"?><!DOCTYPE svg PUBLIC "-//W3C//DTD SVG 20010904//EN" "http://www.w3.org/TR/2001/REC-SVG-20010904/DTD/svg10.dtd"><svg xmlns="http://www.w3.org/2000/svg" version="1.0" width="818" height="212" viewBox="91.4714151827554 70.5 613.3083411433927 159" preserveAspectRatio="xMidYMid meet">

<g transform="translate(0.000000,300.000000) scale(0.100000,-0.100000)" fill="#fff" stroke="none">
<path d="M942 1923 l3 -338 170 0 170 0 3 154 c1 93 7 160 13 168 14 17 120 18 137 1 8 -8 12 -60 12 -170 l0 -158 170 0 170 0 0 151 c0 84 5 159 10 170 9 16 22 19 75 19 53 0 66 -3 75 -19 5 -11 10 -86 10 -170 l0 -151 170 0 170 0 0 340 c0 187 -2 340 -5 340 -3 0 -36 -15 -73 -34 -171 -86 -375 -130 -602 -129 -222 0 -406 39 -589 124 -46 21 -85 39 -88 39 -2 0 -2 -152 -1 -337z"/>
<path d="M2745 1867 c-3 -6 -4 -176 -3 -377 l3 -365 83 -3 c45 -2 83 -2 84 0 1 2 5 121 8 265 l5 262 160 -262 160 -262 79 0 79 0 161 264 161 264 5 -264 5 -264 85 0 85 0 0 375 0 375 -115 3 -115 3 -170 -277 c-94 -153 -174 -279 -180 -281 -5 -1 -71 97 -145 219 -74 122 -152 248 -172 280 l-38 58 -110 0 c-80 0 -112 -4 -115 -13z"/>
<path d="M4560 1500 l0 -381 83 3 82 3 3 148 3 147 304 0 305 0 0 -150 0 -150 85 0 85 0 0 380 0 380 -85 0 -85 0 0 -150 0 -150 -305 0 -304 0 -3 148 -3 147 -82 3 -83 3 0 -381z"/>
<path d="M6165 1867 c-3 -6 -4 -176 -3 -377 l3 -365 445 0 445 0 0 70 0 70 -362 3 -363 2 0 75 0 75 353 2 352 3 0 75 0 75 -352 3 -353 2 0 75 0 75 360 0 360 0 0 75 0 75 -440 0 c-344 0 -442 -3 -445 -13z"/>
<path d="M4164 1637 c-2 -7 -3 -85 -2 -172 l3 -160 58 -3 c35 -2 64 2 73 9 11 9 14 44 14 159 0 82 -3 155 -6 164 -8 21 -132 23 -140 3z"/>
<path d="M5767 1644 c-13 -13 -8 -319 5 -332 13 -13 106 -16 126 -4 9 7 12 48 10 173 l-3 164 -65 3 c-36 2 -69 0 -73 -4z"/>
<path d="M947 1414 c-7 -7 -10 -674 -3 -674 2 0 41 18 87 39 184 86 368 125 589 124 228 0 432 -44 602 -129 37 -19 70 -34 73 -34 3 0 5 153 5 340 l0 340 -170 0 -170 0 0 -151 c0 -84 -5 -159 -10 -170 -9 -16 -22 -19 -75 -19 -53 0 -66 3 -75 19 -5 11 -10 86 -10 170 l0 151 -170 0 -170 0 0 -158 c0 -110 -4 -162 -12 -170 -17 -17 -123 -16 -137 1 -6 8 -12 75 -13 168 l-3 154 -166 3 c-91 1 -168 -1 -172 -4z"/>
</g>
</svg>