<?xml version="1.0" standalone="no"?><!DOCTYPE svg PUBLIC "-//W3C//DTD SVG 20010904//EN" "http://www.w3.org/TR/2001/REC-SVG-20010904/DTD/svg10.dtd"><svg xmlns="http://www.w3.org/2000/svg" version="1.0" width="734" height="138" viewBox="122.96157450796626 47.19101123595506 550.328022492971 103.37078651685394" preserveAspectRatio="xMidYMid meet">

<g transform="translate(0.000000,200.000000) scale(0.100000,-0.100000)" fill="#fff" stroke="none">
<path d="M1263 1483 c-10 -4 -13 -110 -13 -483 0 -427 2 -479 16 -484 20 -8 168 -8 188 0 14 5 16 45 16 340 0 184 3 334 8 334 4 0 97 -147 207 -326 109 -180 205 -333 213 -340 16 -17 153 -19 182 -4 10 5 105 153 211 327 105 175 198 325 206 333 11 12 13 -39 13 -317 0 -271 3 -333 14 -342 9 -8 47 -11 107 -9 l94 3 0 485 0 485 -137 3 -137 3 -28 -39 c-16 -22 -116 -184 -223 -360 -107 -177 -200 -321 -206 -322 -7 0 -109 159 -228 354 -119 195 -224 357 -232 360 -19 7 -254 7 -271 -1z"/>
<path d="M3572 1478 c-19 -19 -17 -941 2 -957 9 -8 47 -11 107 -9 l94 3 3 193 2 192 390 0 390 0 0 -189 c0 -163 2 -190 16 -195 20 -8 168 -8 188 0 14 5 16 57 16 484 0 427 -2 479 -16 484 -9 3 -51 6 -94 6 -43 0 -85 -3 -94 -6 -14 -5 -16 -32 -16 -195 l0 -189 -390 0 -390 0 -2 193 -3 192 -95 3 c-66 2 -99 -1 -108 -10z"/>
<path d="M5623 1483 c-10 -4 -13 -110 -13 -483 0 -427 2 -479 16 -484 24 -9 1097 -7 1112 2 9 6 12 33 10 98 l-3 89 -457 3 -458 2 0 95 0 95 434 0 c239 0 441 3 450 6 23 9 23 179 0 188 -9 3 -211 6 -450 6 l-434 0 0 95 0 95 453 2 452 3 0 95 0 95 -550 2 c-302 1 -556 -1 -562 -4z"/>
<path d="M3062 1178 c-17 -17 -17 -387 1 -412 10 -14 26 -16 92 -14 l80 3 0 215 0 215 -80 3 c-54 2 -84 -1 -93 -10z"/>
<path d="M5107 1184 c-4 -4 -7 -98 -7 -209 0 -162 3 -205 14 -214 9 -8 43 -11 93 -9 l78 3 0 215 0 215 -85 3 c-47 1 -89 0 -93 -4z"/>
</g>
</svg>