<?xml version="1.0" standalone="no"?>
<!DOCTYPE svg PUBLIC "-//W3C//DTD SVG 20010904//EN"
 "http://www.w3.org/TR/2001/REC-SVG-20010904/DTD/svg10.dtd">
<svg version="1.0" xmlns="http://www.w3.org/2000/svg"
 width="753.000000pt" height="800.000000pt" viewBox="0 0 753.000000 800.000000"
 preserveAspectRatio="xMidYMid meet">

<g transform="translate(0.000000,800.000000) scale(0.100000,-0.100000)"
fill="#fff" stroke="none">
<path d="M1885 6881 c-3 -2 -5 -424 -5 -938 l0 -933 475 0 475 0 0 425 c0 472
0 468 64 499 46 22 280 23 331 2 65 -28 65 -27 65 -501 l0 -425 475 0 475 0 0
425 c0 472 0 468 64 499 49 23 283 23 332 0 64 -31 64 -27 64 -499 l0 -425
475 0 475 0 0 933 c0 514 -2 936 -5 938 -2 3 -53 -19 -112 -48 -419 -206 -839
-329 -1333 -389 -203 -25 -667 -25 -870 0 -494 60 -914 183 -1333 389 -59 29
-110 51 -112 48z"/>
<path d="M1880 3600 c0 -517 2 -940 5 -940 3 0 63 29 133 64 815 408 1801 512
2717 285 266 -66 543 -168 777 -285 70 -35 130 -64 133 -64 3 0 5 423 5 940
l0 940 -475 0 -475 0 0 -425 c0 -474 0 -473 -65 -501 -47 -19 -282 -20 -328 0
-68 28 -67 18 -67 496 l0 430 -475 0 -475 0 0 -430 c0 -478 1 -468 -67 -496
-46 -20 -281 -19 -328 0 -65 28 -65 27 -65 501 l0 425 -475 0 -475 0 0 -940z"/>
<path d="M1585 1867 c-3 -6 -4 -179 -3 -382 l3 -370 85 0 85 0 5 269 5 270
165 -270 165 -269 77 -3 76 -3 163 270 c90 149 167 271 172 271 4 0 7 -121 7
-270 l0 -270 85 0 85 0 0 385 0 385 -113 0 c-96 0 -116 -3 -129 -17 -8 -10
-88 -138 -177 -285 -90 -148 -166 -268 -169 -268 -4 1 -85 129 -180 285 l-174
285 -114 0 c-83 0 -116 -3 -119 -13z"/>
<path d="M3422 1498 l3 -383 83 -3 82 -3 0 156 0 155 310 0 309 0 3 -152 3
-153 79 -3 c57 -2 82 1 87 10 10 15 12 718 3 742 -5 13 -23 16 -90 16 l-84 0
0 -155 0 -155 -310 0 -310 0 0 155 0 155 -85 0 -85 0 2 -382z"/>
<path d="M5045 1867 c-3 -6 -4 -179 -3 -382 l3 -370 450 0 450 0 3 63 c2 38
-2 69 -9 78 -9 12 -73 14 -365 14 l-354 0 0 75 0 75 355 0 355 0 0 75 0 75
-355 0 -355 0 0 80 0 80 360 0 360 0 0 75 0 75 -445 0 c-348 0 -447 -3 -450
-13z"/>
<path d="M3022 1638 c-13 -13 -18 -291 -6 -322 9 -23 139 -23 148 0 12 31 7
309 -6 322 -7 7 -37 12 -68 12 -31 0 -61 -5 -68 -12z"/>
<path d="M4645 1638 c-3 -8 -4 -86 -3 -173 l3 -160 70 0 70 0 0 170 0 170 -68
3 c-49 2 -69 -1 -72 -10z"/>
</g>
</svg>
