<?xml version="1.0" standalone="no"?><!DOCTYPE svg PUBLIC "-//W3C//DTD SVG 20010904//EN" "http://www.w3.org/TR/2001/REC-SVG-20010904/DTD/svg10.dtd"><svg xmlns="http://www.w3.org/2000/svg" version="1.0" width="514" height="584" viewBox="181.5 176.19493908153703 385.5 437.863167760075" preserveAspectRatio="xMidYMid meet">

<g transform="translate(0.000000,800.000000) scale(0.100000,-0.100000)" fill="#FFF" stroke="none">
<path d="M1880 5175 l0 -945 473 2 472 3 5 435 c3 239 9 443 14 453 19 39 58 47 220 47 l156 0 32 -29 33 -29 5 -439 5 -438 470 0 470 0 5 438 5 439 33 29 32 29 161 0 c167 0 195 -6 216 -48 4 -9 10 -213 13 -452 l5 -435 473 -3 472 -2 0 945 0 945 -109 -54 c-400 -201 -850 -334 -1331 -393 -204 -25 -686 -25 -890 0 -486 60 -930 192 -1342 398 l-98 49 0 -945z"/>
<path d="M1880 2825 l0 -945 98 49 c412 206 856 338 1342 398 204 25 686 25 890 0 483 -60 929 -191 1331 -393 l109 -54 0 945 0 945 -472 -2 -473 -3 -5 -435 c-3 -239 -9 -443 -13 -452 -21 -42 -49 -48 -216 -48 l-161 0 -32 29 -33 29 -5 439 -5 438 -470 0 -470 0 -5 -438 -5 -439 -33 -29 -32 -29 -156 0 c-162 0 -201 8 -220 47 -5 10 -11 214 -14 453 l-5 435 -472 3 -473 2 0 -945z"/>
</g>
</svg>